<?xml version="1.0" encoding="utf-8" standalone="no"?>
<!DOCTYPE svg PUBLIC "-//W3C//DTD SVG 1.1//EN"
  "http://www.w3.org/Graphics/SVG/1.1/DTD/svg11.dtd">
<svg xmlns:xlink="http://www.w3.org/1999/xlink" width="113.385827pt" height="113.385827pt" viewBox="0 0 113.385827 113.385827" xmlns="http://www.w3.org/2000/svg" version="1.1">
 <metadata>
  <rdf:RDF xmlns:dc="http://purl.org/dc/elements/1.1/" xmlns:cc="http://creativecommons.org/ns#" xmlns:rdf="http://www.w3.org/1999/02/22-rdf-syntax-ns#">
   <cc:Work>
    <dc:type rdf:resource="http://purl.org/dc/dcmitype/StillImage"/>
    <dc:date>2025-11-03T22:41:28.694350</dc:date>
    <dc:format>image/svg+xml</dc:format>
    <dc:creator>
     <cc:Agent>
      <dc:title>Matplotlib v3.7.1, https://matplotlib.org/</dc:title>
     </cc:Agent>
    </dc:creator>
   </cc:Work>
  </rdf:RDF>
 </metadata>
 <defs>
  <style type="text/css">*{stroke-linejoin: round; stroke-linecap: butt}</style>
 </defs>
 <g id="figure_1">
  <g id="patch_1">
   <path d="M 0 113.385827 
L 113.385827 113.385827 
L 113.385827 0 
L 0 0 
z
" style="fill: #ffffff"/>
  </g>
  <g id="axes_1">
   <g id="patch_2">
    <path d="M 22.677165 90.708661 
L 102.047244 90.708661 
L 102.047244 13.606299 
L 22.677165 13.606299 
z
" style="fill: #ffffff"/>
   </g>
   <g id="matplotlib.axis_1">
    <g id="xtick_1">
     <g id="line2d_1">
      <defs>
       <path id="m359c6121de" d="M 0 0 
L 0 -3.5 
" style="stroke: #000000; stroke-width: 0.8"/>
      </defs>
      <g>
       <use xlink:href="#m359c6121de" x="22.677165" y="90.708661" style="stroke: #000000; stroke-width: 0.8"/>
      </g>
     </g>
     <g id="text_1">
      <text style="font: 7px 'DejaVu Sans', 'Bitstream Vera Sans', 'Computer Modern Sans Serif', 'Lucida Grande', 'Verdana', 'Geneva', 'Lucid', 'Arial', 'Helvetica', 'Avant Garde', sans-serif; text-anchor: middle" x="22.677165" y="99.527568" transform="rotate(-0 22.677165 99.527568)">0</text>
     </g>
    </g>
    <g id="xtick_2">
     <g id="line2d_2">
      <g>
       <use xlink:href="#m359c6121de" x="61.34464" y="90.708661" style="stroke: #000000; stroke-width: 0.8"/>
      </g>
     </g>
     <g id="text_2">
      <text style="font: 7px 'DejaVu Sans', 'Bitstream Vera Sans', 'Computer Modern Sans Serif', 'Lucida Grande', 'Verdana', 'Geneva', 'Lucid', 'Arial', 'Helvetica', 'Avant Garde', sans-serif; text-anchor: middle" x="61.34464" y="99.527568" transform="rotate(-0 61.34464 99.527568)">0.2</text>
     </g>
    </g>
    <g id="xtick_3">
     <g id="line2d_3">
      <g>
       <use xlink:href="#m359c6121de" x="102.047244" y="90.708661" style="stroke: #000000; stroke-width: 0.8"/>
      </g>
     </g>
     <g id="text_3">
      <text style="font: 7px 'DejaVu Sans', 'Bitstream Vera Sans', 'Computer Modern Sans Serif', 'Lucida Grande', 'Verdana', 'Geneva', 'Lucid', 'Arial', 'Helvetica', 'Avant Garde', sans-serif; text-anchor: middle" x="102.047244" y="99.527568" transform="rotate(-0 102.047244 99.527568)">0.4</text>
     </g>
    </g>
    <g id="text_4">
     <!-- $\sigma_i$ or $\sigma_s$ -->
     <g transform="translate(49.937205 110.302255)">
      <text>
       <tspan style="font: oblique 7px 'DejaVu Sans'" x="0 17.600146" y="-0.078125">σσ</tspan>
       <tspan style="font: oblique 4.9px 'DejaVu Sans'" x="4.436523 22.03667" y="1.0703125">is</tspan>
       <tspan style="font: 7px 'DejaVu Sans'" x="5.989307 8.214404 12.497119 15.375049" y="-0.078125"> or </tspan>
      </text>
     </g>
    </g>
   </g>
   <g id="matplotlib.axis_2">
    <g id="ytick_1">
     <g id="line2d_4">
      <defs>
       <path id="me60c7c5526" d="M 0 0 
L 3.5 0 
" style="stroke: #000000; stroke-width: 0.8"/>
      </defs>
      <g>
       <use xlink:href="#me60c7c5526" x="22.677165" y="90.708661" style="stroke: #000000; stroke-width: 0.8"/>
      </g>
     </g>
     <g id="text_5">
      <text style="font: 7px 'DejaVu Sans', 'Bitstream Vera Sans', 'Computer Modern Sans Serif', 'Lucida Grande', 'Verdana', 'Geneva', 'Lucid', 'Arial', 'Helvetica', 'Avant Garde', sans-serif; text-anchor: end" x="19.177165" y="93.368115" transform="rotate(-0 19.177165 93.368115)">0</text>
     </g>
    </g>
    <g id="ytick_2">
     <g id="line2d_5">
      <g>
       <use xlink:href="#me60c7c5526" x="22.677165" y="53.145972" style="stroke: #000000; stroke-width: 0.8"/>
      </g>
     </g>
     <g id="text_6">
      <text style="font: 7px 'DejaVu Sans', 'Bitstream Vera Sans', 'Computer Modern Sans Serif', 'Lucida Grande', 'Verdana', 'Geneva', 'Lucid', 'Arial', 'Helvetica', 'Avant Garde', sans-serif; text-anchor: end" x="19.177165" y="55.805425" transform="rotate(-0 19.177165 55.805425)">0.2</text>
     </g>
    </g>
    <g id="ytick_3">
     <g id="line2d_6">
      <g>
       <use xlink:href="#me60c7c5526" x="22.677165" y="13.606299" style="stroke: #000000; stroke-width: 0.8"/>
      </g>
     </g>
     <g id="text_7">
      <text style="font: 7px 'DejaVu Sans', 'Bitstream Vera Sans', 'Computer Modern Sans Serif', 'Lucida Grande', 'Verdana', 'Geneva', 'Lucid', 'Arial', 'Helvetica', 'Avant Garde', sans-serif; text-anchor: end" x="19.177165" y="16.265752" transform="rotate(-0 19.177165 16.265752)">0.4</text>
     </g>
    </g>
    <g id="text_8">
     <!-- $\sigma_e$ -->
     <g transform="translate(2.589197 56.00748) rotate(-90)">
      <text>
       <tspan style="font: oblique 7px 'DejaVu Sans'" x="0" y="-0.171875">σ</tspan>
       <tspan style="font: oblique 4.9px 'DejaVu Sans'" x="4.436523" y="0.9765625">e</tspan>
      </text>
     </g>
    </g>
   </g>
   <g id="line2d_7">
    <path d="M 102.047244 80.596735 
L 100.012114 80.597432 
L 97.976984 80.59869 
L 95.941853 80.60092 
L 93.906723 80.604811 
L 91.871593 80.611491 
L 89.836463 80.622772 
L 87.801333 80.641519 
L 85.766202 80.672179 
L 83.731072 80.721546 
L 81.695942 80.799844 
L 81.298703 80.823743 
L 79.660812 80.929678 
L 77.625681 81.132855 
L 75.590551 81.442998 
L 73.555421 81.912393 
L 71.520291 82.619204 
L 71.175965 82.800727 
L 69.485161 83.799375 
L 67.45003 84.622061 
L 65.4149 84.657406 
L 63.37977 84.692041 
L 61.34464 84.761932 
L 61.109532 84.77771 
L 59.309509 84.912482 
L 57.274379 85.20205 
L 55.239249 85.741388 
L 53.204119 86.64994 
L 51.168988 86.74294 
L 51.012855 86.754694 
L 49.133858 86.918658 
L 47.098728 87.332256 
L 45.063598 87.926106 
L 43.028468 88.150063 
L 40.993337 88.662724 
L 40.529859 88.731678 
L 38.958207 88.964977 
L 36.923077 89.45886 
L 34.887947 89.850255 
L 32.852816 90.232384 
L 30.817686 90.608577 
L 30.393633 90.708661 
" clip-path="url(#p5a82749de6)" style="fill: none; stroke-dasharray: 3.7,1.6; stroke-dashoffset: 0; stroke: #800080; stroke-opacity: 0.166667"/>
   </g>
   <g id="line2d_8">
    <path d="M 102.047244 59.637352 
L 100.012114 60.561809 
L 99.059211 61.053907 
L 97.976984 61.612441 
L 95.941853 62.801011 
L 95.592401 63.03089 
L 93.906723 64.148113 
L 92.749613 65.007874 
L 91.871593 65.373971 
L 89.836463 65.903178 
L 87.801333 65.955915 
L 85.766202 66.000876 
L 83.731072 66.073738 
L 81.695942 66.190501 
L 79.660812 66.376082 
L 77.625681 66.669811 
L 76.252131 66.984858 
L 75.590551 67.117744 
L 73.555421 67.781908 
L 71.520291 68.875934 
L 71.455708 68.961841 
L 69.485161 70.671695 
L 69.115675 70.938825 
L 67.903862 72.915809 
L 67.45003 73.395195 
L 65.4149 74.823051 
L 64.566858 74.892792 
L 63.37977 74.935685 
L 61.34464 75.030906 
L 59.309509 75.221878 
L 57.274379 75.604532 
L 55.239249 76.396292 
L 54.836927 76.869776 
L 53.204119 78.085939 
L 51.890682 78.84676 
L 51.168988 79.400349 
L 49.133858 79.625579 
L 47.098728 80.205317 
L 46.398375 80.823743 
L 45.063598 81.644581 
L 43.028468 82.306103 
L 41.999013 82.800727 
L 40.993337 83.145011 
L 38.958207 84.085072 
L 37.820767 84.77771 
L 36.923077 85.166119 
L 34.887947 85.903815 
L 33.388057 86.754694 
L 32.852816 86.96079 
L 30.817686 87.686296 
L 29.074236 88.731678 
L 28.782556 88.834946 
L 26.747426 89.479896 
L 24.877394 90.708661 
" clip-path="url(#p5a82749de6)" style="fill: none; stroke-dasharray: 3.7,1.6; stroke-dashoffset: 0; stroke: #800080; stroke-opacity: 0.333333"/>
   </g>
   <g id="line2d_9">
    <path d="M 102.047244 40.598157 
L 101.009155 41.28407 
L 100.012114 41.90193 
L 98.08293 43.261054 
L 97.976984 43.331441 
L 95.941853 44.861484 
L 95.497184 45.238038 
L 93.906723 46.515287 
L 93.129506 47.215021 
L 91.871593 48.295225 
L 90.935646 49.192005 
L 89.836463 50.202517 
L 88.889752 51.168988 
L 87.801333 52.241642 
L 86.970976 53.145972 
L 85.766202 54.420672 
L 85.162621 55.122956 
L 83.731072 56.751802 
L 82.938699 57.099939 
L 81.695942 57.508429 
L 79.660812 57.949617 
L 77.625681 58.718382 
L 77.211025 59.076923 
L 75.590551 60.032926 
L 74.379065 61.053907 
L 73.555421 61.665438 
L 71.520291 62.89316 
L 70.902191 63.03089 
L 69.485161 63.297316 
L 67.45003 63.8332 
L 65.4149 64.570618 
L 64.522257 65.007874 
L 63.37977 65.489884 
L 61.34464 66.629985 
L 60.858839 66.984858 
L 59.309509 67.980592 
L 58.116868 68.961841 
L 57.274379 69.58537 
L 55.818916 70.938825 
L 55.239249 71.435177 
L 53.410644 72.915809 
L 53.204119 73.086555 
L 51.168988 73.647969 
L 49.133858 74.541477 
L 48.61046 74.892792 
L 47.098728 75.717269 
L 45.658749 76.869776 
L 45.063598 77.276399 
L 43.028468 78.609607 
L 42.645004 78.84676 
L 40.993337 79.605956 
L 39.431212 80.823743 
L 38.958207 81.106269 
L 36.923077 82.201677 
L 36.112738 82.800727 
L 34.887947 83.529489 
L 33.085047 84.77771 
L 32.852816 84.86692 
L 30.817686 86.037756 
L 29.924237 86.754694 
L 28.782556 87.223043 
L 26.810195 88.731678 
L 26.747426 88.751409 
L 24.712296 89.42773 
L 23.432876 90.708661 
" clip-path="url(#p5a82749de6)" style="fill: none; stroke-dasharray: 3.7,1.6; stroke-dashoffset: 0; stroke: #800080; stroke-opacity: 0.5"/>
   </g>
   <g id="line2d_10">
    <path d="M 102.047244 31.652447 
L 100.132605 33.376136 
L 100.012114 33.475765 
L 98.014981 35.353119 
L 97.976984 35.386093 
L 95.997345 37.330103 
L 95.941853 37.380669 
L 94.064965 39.307087 
L 93.906723 39.458597 
L 92.206071 41.28407 
L 91.871593 41.620792 
L 90.411329 43.261054 
L 89.836463 43.869994 
L 88.673429 45.238038 
L 87.801333 46.210863 
L 86.975468 47.215021 
L 85.766202 48.641036 
L 85.006769 49.192005 
L 83.731072 50.777842 
L 82.960909 51.168988 
L 81.695942 51.631603 
L 79.691704 53.145972 
L 79.660812 53.161652 
L 77.625681 54.390452 
L 75.590551 54.747094 
L 74.136601 55.122956 
L 73.555421 55.240316 
L 71.520291 55.836215 
L 69.485161 56.685446 
L 68.775904 57.099939 
L 67.45003 57.716628 
L 65.4149 59.019196 
L 65.348183 59.076923 
L 63.37977 60.458515 
L 62.740929 61.053907 
L 61.34464 62.130254 
L 60.448635 63.03089 
L 59.309509 63.997027 
L 58.333606 65.007874 
L 57.274379 65.996635 
L 55.915048 66.984858 
L 55.239249 67.71589 
L 53.204119 68.669035 
L 52.770242 68.961841 
L 51.168988 69.729671 
L 49.5846 70.938825 
L 49.133858 71.193989 
L 47.14439 72.915809 
L 47.098728 72.946458 
L 45.063598 74.66008 
L 44.765099 74.892792 
L 43.028468 75.752379 
L 41.789805 76.869776 
L 40.993337 77.36235 
L 39.070782 78.84676 
L 38.958207 78.928717 
L 36.923077 80.265941 
L 36.300857 80.823743 
L 34.887947 81.719329 
L 33.67063 82.800727 
L 32.852816 83.307542 
L 31.113 84.77771 
L 30.817686 84.941281 
L 28.782556 86.236042 
L 28.248649 86.754694 
L 26.747426 87.418763 
L 25.395896 88.731678 
L 24.712296 88.951789 
L 22.957497 90.708661 
" clip-path="url(#p5a82749de6)" style="fill: none; stroke-dasharray: 3.7,1.6; stroke-dashoffset: 0; stroke: #800080; stroke-opacity: 0.666667"/>
   </g>
   <g id="line2d_11">
    <path d="M 102.047244 27.913141 
L 100.654315 29.422168 
L 100.012114 30.054821 
L 98.811775 31.399152 
L 97.976984 32.253546 
L 97.007725 33.376136 
L 95.941853 34.509959 
L 95.121132 35.353119 
L 93.906723 36.728059 
L 93.26803 37.330103 
L 91.871593 39.125962 
L 91.676146 39.307087 
L 90.140535 41.28407 
L 89.836463 41.625624 
L 88.16402 43.261054 
L 87.801333 43.713992 
L 85.983092 45.238038 
L 85.766202 45.59911 
L 83.895879 47.215021 
L 83.731072 47.30239 
L 81.695942 47.68892 
L 79.660812 48.053395 
L 77.625681 48.609702 
L 76.20609 49.192005 
L 75.590551 49.378774 
L 73.555421 50.289694 
L 72.200622 51.168988 
L 71.520291 51.50152 
L 69.485161 52.919136 
L 69.252638 53.145972 
L 67.45003 54.494578 
L 66.83966 55.122956 
L 65.4149 56.268732 
L 64.613566 57.099939 
L 63.37977 58.161906 
L 62.365991 59.076923 
L 61.34464 60.016331 
L 60.137987 61.053907 
L 59.309509 61.912036 
L 57.856169 63.03089 
L 57.274379 63.727807 
L 55.239249 64.808597 
L 55.021321 65.007874 
L 53.204119 66.094774 
L 52.305383 66.984858 
L 51.168988 67.751767 
L 49.857363 68.961841 
L 49.133858 69.49522 
L 47.428888 70.938825 
L 47.098728 71.208404 
L 45.063598 72.746148 
L 44.885019 72.915809 
L 43.028468 74.160468 
L 42.265462 74.892792 
L 40.993337 75.941363 
L 39.974296 76.869776 
L 38.958207 77.458221 
L 37.465254 78.84676 
L 36.923077 79.193504 
L 35.104572 80.823743 
L 34.887947 80.961053 
L 32.852816 82.636472 
L 32.68373 82.800727 
L 30.817686 83.723587 
L 29.732559 84.77771 
L 28.782556 85.238875 
L 27.222154 86.754694 
L 26.747426 86.964691 
L 24.928469 88.731678 
L 24.712296 88.801283 
L 22.807169 90.708661 
" clip-path="url(#p5a82749de6)" style="fill: none; stroke-dasharray: 3.7,1.6; stroke-dashoffset: 0; stroke: #800080; stroke-opacity: 0.833333"/>
   </g>
   <g id="line2d_12">
    <path d="M 102.047244 26.292892 
L 100.856334 27.445185 
L 100.012114 28.430941 
L 98.979128 29.422168 
L 97.976984 30.809808 
L 97.352873 31.399152 
L 96.102891 33.376136 
L 95.941853 33.54744 
L 94.184228 35.353119 
L 93.906723 35.667307 
L 92.142705 37.330103 
L 91.871593 37.678761 
L 90.114511 39.307087 
L 89.836463 39.806685 
L 87.928033 41.28407 
L 87.801333 41.411267 
L 85.766202 41.833476 
L 83.731072 42.241924 
L 81.695942 42.886761 
L 80.934987 43.261054 
L 79.660812 43.700827 
L 77.625681 44.772936 
L 77.037327 45.238038 
L 75.590551 46.054677 
L 74.197014 47.215021 
L 73.555421 47.603247 
L 71.744655 49.192005 
L 71.520291 49.337622 
L 69.540303 51.168988 
L 69.485161 51.207399 
L 67.497987 53.145972 
L 67.45003 53.181851 
L 65.564553 55.122956 
L 65.4149 55.243305 
L 63.624994 57.099939 
L 63.37977 57.311011 
L 61.423255 59.076923 
L 61.34464 59.149231 
L 59.309509 60.289746 
L 58.332248 61.053907 
L 57.274379 61.553473 
L 55.526389 63.03089 
L 55.239249 63.183381 
L 53.244001 65.007874 
L 53.204119 65.031728 
L 51.232003 66.984858 
L 51.168988 67.027384 
L 49.133858 68.670465 
L 48.825663 68.961841 
L 47.098728 69.870861 
L 45.965683 70.938825 
L 45.063598 71.465866 
L 43.537437 72.915809 
L 43.028468 73.257029 
L 41.324174 74.892792 
L 40.993337 75.16549 
L 39.122685 76.869776 
L 38.958207 76.96503 
L 36.934976 78.84676 
L 36.923077 78.85437 
L 34.887947 79.874247 
L 33.910524 80.823743 
L 32.852816 81.396978 
L 31.407781 82.800727 
L 30.817686 83.092561 
L 29.082973 84.77771 
L 28.782556 84.923544 
L 26.897548 86.754694 
L 26.747426 86.821101 
L 24.780656 88.731678 
L 24.712296 88.753689 
L 22.759631 90.708661 
" clip-path="url(#p5a82749de6)" style="fill: none; stroke-dasharray: 3.7,1.6; stroke-dashoffset: 0; stroke: #800080"/>
   </g>
   <g id="line2d_13">
    <path d="M 102.047244 88.280935 
L 100.012114 88.280935 
L 97.976984 88.280935 
L 95.941853 88.280935 
L 93.906723 88.280935 
L 91.871593 88.280935 
L 89.836463 88.280935 
L 87.801333 88.280935 
L 85.766202 88.280935 
L 83.731072 88.280935 
L 81.695942 88.280935 
L 79.660812 88.280935 
L 77.625681 88.280935 
L 75.590551 88.280935 
L 73.555421 88.280935 
L 71.520291 88.280935 
L 69.485161 88.280935 
L 67.45003 88.280935 
L 65.4149 88.280935 
L 63.37977 88.280935 
L 61.34464 88.280935 
L 59.309509 88.280935 
L 57.274379 88.280936 
L 55.239249 88.280936 
L 53.204119 88.280939 
L 51.168988 88.280954 
L 49.133858 88.281014 
L 47.098728 88.281232 
L 45.063598 88.281955 
L 43.028468 88.284108 
L 40.993337 88.289876 
L 38.958207 88.303754 
L 36.923077 88.333661 
L 34.887947 88.391169 
L 32.852816 88.489336 
L 30.817686 88.637035 
L 29.825099 88.731678 
L 28.782556 88.844551 
L 26.747426 89.095841 
L 24.712296 89.344912 
L 22.677165 89.537634 
" clip-path="url(#p5a82749de6)" style="fill: none; stroke-dasharray: 3.7,1.6; stroke-dashoffset: 0; stroke: #000000; stroke-opacity: 0.166667"/>
   </g>
   <g id="line2d_14">
    <path d="M 102.047244 82.412805 
L 100.012114 82.412805 
L 97.976984 82.412805 
L 95.941853 82.412805 
L 93.906723 82.412805 
L 91.871593 82.412805 
L 89.836463 82.412805 
L 87.801333 82.412805 
L 85.766202 82.412805 
L 83.731072 82.412805 
L 81.695942 82.412805 
L 79.660812 82.412806 
L 77.625681 82.412806 
L 75.590551 82.412806 
L 73.555421 82.412806 
L 71.520291 82.412807 
L 69.485161 82.412808 
L 67.45003 82.412812 
L 65.4149 82.412819 
L 63.37977 82.412835 
L 61.34464 82.412866 
L 59.309509 82.412927 
L 57.274379 82.413041 
L 55.239249 82.413245 
L 53.204119 82.413602 
L 51.168988 82.414212 
L 49.133858 82.415255 
L 47.098728 82.4171 
L 45.063598 82.420583 
L 43.028468 82.427645 
L 40.993337 82.442599 
L 38.958207 82.474307 
L 36.923077 82.539728 
L 34.887947 82.670493 
L 33.811326 82.800727 
L 32.852816 82.859837 
L 30.817686 83.048404 
L 28.782556 83.176127 
L 26.747426 83.260246 
L 24.712296 83.357948 
L 22.677165 83.444964 
" clip-path="url(#p5a82749de6)" style="fill: none; stroke-dasharray: 3.7,1.6; stroke-dashoffset: 0; stroke: #000000; stroke-opacity: 0.333333"/>
   </g>
   <g id="line2d_15">
    <path d="M 102.047244 77.42055 
L 100.012114 77.42055 
L 97.976984 77.42055 
L 95.941853 77.42055 
L 93.906723 77.42055 
L 91.871593 77.42055 
L 89.836463 77.42055 
L 87.801333 77.42055 
L 85.766202 77.42055 
L 83.731072 77.42055 
L 81.695942 77.42055 
L 79.660812 77.42055 
L 77.625681 77.420551 
L 75.590551 77.420552 
L 73.555421 77.420554 
L 71.520291 77.42056 
L 69.485161 77.420575 
L 67.45003 77.420607 
L 65.4149 77.420678 
L 63.37977 77.420824 
L 61.34464 77.421118 
L 59.309509 77.421687 
L 57.274379 77.422745 
L 55.239249 77.424642 
L 53.204119 77.427918 
L 51.168988 77.433372 
L 49.133858 77.442125 
L 47.098728 77.455677 
L 45.063598 77.475927 
L 43.028468 77.505137 
L 40.993337 77.545768 
L 38.958207 77.600156 
L 36.923077 77.669941 
L 34.887947 77.755305 
L 32.852816 77.854159 
L 30.817686 77.961597 
L 28.782556 78.069931 
L 26.747426 78.169481 
L 24.712296 78.250013 
L 22.677165 78.30249 
" clip-path="url(#p5a82749de6)" style="fill: none; stroke-dasharray: 3.7,1.6; stroke-dashoffset: 0; stroke: #000000; stroke-opacity: 0.5"/>
   </g>
   <g id="line2d_16">
    <path d="M 102.047244 75.107415 
L 100.012114 75.107415 
L 97.976984 75.107415 
L 95.941853 75.107415 
L 93.906723 75.107415 
L 91.871593 75.107415 
L 89.836463 75.107415 
L 87.801333 75.107415 
L 85.766202 75.107415 
L 83.731072 75.107415 
L 81.695942 75.107415 
L 79.660812 75.107416 
L 77.625681 75.107416 
L 75.590551 75.107417 
L 73.555421 75.10742 
L 71.520291 75.107428 
L 69.485161 75.107445 
L 67.45003 75.107483 
L 65.4149 75.107567 
L 63.37977 75.107741 
L 61.34464 75.10809 
L 59.309509 75.108764 
L 57.274379 75.110019 
L 55.239249 75.112271 
L 53.204119 75.116159 
L 51.168988 75.122632 
L 49.133858 75.133022 
L 47.098728 75.149111 
L 45.063598 75.17316 
L 43.028468 75.207856 
L 40.993337 75.256127 
L 38.958207 75.320736 
L 36.923077 75.403591 
L 34.887947 75.504816 
L 32.852816 75.621799 
L 30.817686 75.748582 
L 28.782556 75.875993 
L 26.747426 75.992666 
L 24.712296 76.05049 
L 22.677165 76.08925 
" clip-path="url(#p5a82749de6)" style="fill: none; stroke-dasharray: 3.7,1.6; stroke-dashoffset: 0; stroke: #000000; stroke-opacity: 0.666667"/>
   </g>
   <g id="line2d_17">
    <path d="M 102.047244 73.690251 
L 100.012114 73.690251 
L 97.976984 73.690251 
L 95.941853 73.690251 
L 93.906723 73.690251 
L 91.871593 73.690251 
L 89.836463 73.690251 
L 87.801333 73.690251 
L 85.766202 73.690251 
L 83.731072 73.690251 
L 81.695942 73.690251 
L 79.660812 73.690252 
L 77.625681 73.690252 
L 75.590551 73.690253 
L 73.555421 73.690256 
L 71.520291 73.690262 
L 69.485161 73.690277 
L 67.45003 73.69031 
L 65.4149 73.690382 
L 63.37977 73.690532 
L 61.34464 73.690833 
L 59.309509 73.691416 
L 57.274379 73.692504 
L 55.239249 73.694462 
L 53.204119 73.697868 
L 51.168988 73.703605 
L 49.133858 73.712993 
L 47.098728 73.727982 
L 45.063598 73.751476 
L 43.028468 73.787887 
L 40.993337 73.844201 
L 38.958207 73.932111 
L 36.923077 74.072739 
L 34.887947 74.308415 
L 32.852816 74.737718 
L 32.375209 74.892792 
L 30.817686 74.990152 
L 28.782556 75.117864 
L 26.747426 75.23465 
L 24.712296 75.257329 
L 22.677165 75.269483 
" clip-path="url(#p5a82749de6)" style="fill: none; stroke-dasharray: 3.7,1.6; stroke-dashoffset: 0; stroke: #000000; stroke-opacity: 0.833333"/>
   </g>
   <g id="line2d_18">
    <path d="M 102.047244 73.160709 
L 100.012114 73.160709 
L 97.976984 73.160709 
L 95.941853 73.160709 
L 93.906723 73.160709 
L 91.871593 73.160709 
L 89.836463 73.160709 
L 87.801333 73.160709 
L 85.766202 73.160709 
L 83.731072 73.160709 
L 81.695942 73.160709 
L 79.660812 73.160709 
L 77.625681 73.160709 
L 75.590551 73.160709 
L 73.555421 73.16071 
L 71.520291 73.160712 
L 69.485161 73.160717 
L 67.45003 73.160727 
L 65.4149 73.16075 
L 63.37977 73.160798 
L 61.34464 73.160893 
L 59.309509 73.161077 
L 57.274379 73.161421 
L 55.239249 73.162041 
L 53.204119 73.163118 
L 51.168988 73.164932 
L 49.133858 73.1679 
L 47.098728 73.17264 
L 45.063598 73.18007 
L 43.028468 73.191584 
L 40.993337 73.209392 
L 38.958207 73.237192 
L 36.923077 73.281662 
L 34.887947 73.356189 
L 32.852816 73.491947 
L 30.817686 73.781193 
L 28.782556 74.661775 
L 28.527021 74.892792 
L 26.747426 74.994944 
L 24.712296 75.006509 
L 22.677165 75.01025 
" clip-path="url(#p5a82749de6)" style="fill: none; stroke-dasharray: 3.7,1.6; stroke-dashoffset: 0; stroke: #000000"/>
   </g>
   <g id="patch_3">
    <path d="M 22.677165 90.708661 
L 22.677165 13.606299 
" style="fill: none; stroke: #000000; stroke-width: 0.8; stroke-linejoin: miter; stroke-linecap: square"/>
   </g>
   <g id="patch_4">
    <path d="M 102.047244 90.708661 
L 102.047244 13.606299 
" style="fill: none; stroke: #000000; stroke-width: 0.8; stroke-linejoin: miter; stroke-linecap: square"/>
   </g>
   <g id="patch_5">
    <path d="M 22.677165 90.708661 
L 102.047244 90.708661 
" style="fill: none; stroke: #000000; stroke-width: 0.8; stroke-linejoin: miter; stroke-linecap: square"/>
   </g>
   <g id="patch_6">
    <path d="M 22.677165 13.606299 
L 102.047244 13.606299 
" style="fill: none; stroke: #000000; stroke-width: 0.8; stroke-linejoin: miter; stroke-linecap: square"/>
   </g>
  </g>
 </g>
 <defs>
  <clipPath id="p5a82749de6">
   <rect x="22.677165" y="13.606299" width="79.370079" height="77.102362"/>
  </clipPath>
 </defs>
</svg>
